<svg width="60" height="60" viewBox="0 0 60 60" fill="none" xmlns="http://www.w3.org/2000/svg">
<path d="M50.625 18.5156V18.75C50.625 21.2364 49.6373 23.621 47.8791 25.3791C46.121 27.1373 43.7364 28.125 41.25 28.125H31.875V46.875H33.75C34.5098 46.8754 35.2517 46.645 35.8776 46.2143C36.5035 45.7836 36.9838 45.173 37.255 44.4633C37.5261 43.7535 37.5753 42.9782 37.396 42.2399C37.2166 41.5016 36.8173 40.8352 36.2508 40.3289C35.899 39.9928 35.6916 39.533 35.6725 39.0468C35.6534 38.5606 35.8241 38.086 36.1484 37.7233C36.4728 37.3606 36.9254 37.1382 37.4108 37.1031C37.8961 37.068 38.376 37.2229 38.7492 37.5352C39.8812 38.5478 40.6791 39.8802 41.0373 41.3561C41.3955 42.8321 41.2971 44.382 40.7553 45.8009C40.2134 47.2197 39.2535 48.4406 38.0026 49.302C36.7517 50.1634 35.2688 50.6248 33.75 50.625H31.875V54.375C31.875 54.8723 31.6775 55.3492 31.3258 55.7008C30.9742 56.0525 30.4973 56.25 30 56.25C29.5027 56.25 29.0258 56.0525 28.6742 55.7008C28.3225 55.3492 28.125 54.8723 28.125 54.375V50.625H22.5C22.0027 50.625 21.5258 50.4275 21.1742 50.0758C20.8225 49.7242 20.625 49.2473 20.625 48.75C20.625 48.2527 20.8225 47.7758 21.1742 47.4242C21.5258 47.0725 22.0027 46.875 22.5 46.875H28.125V28.125H22.5C21.5054 28.125 20.5516 28.5201 19.8484 29.2234C19.1451 29.9266 18.75 30.8804 18.75 31.875C18.75 32.8696 19.1451 33.8234 19.8484 34.5266C20.5516 35.2299 21.5054 35.625 22.5 35.625C22.9973 35.625 23.4742 35.8225 23.8258 36.1742C24.1775 36.5258 24.375 37.0027 24.375 37.5C24.375 37.9973 24.1775 38.4742 23.8258 38.8258C23.4742 39.1775 22.9973 39.375 22.5 39.375C20.5109 39.375 18.6032 38.5848 17.1967 37.1783C15.7902 35.7718 15 33.8641 15 31.875C15 29.8859 15.7902 27.9782 17.1967 26.5717C18.6032 25.1652 20.5109 24.375 22.5 24.375H28.125V5.625C28.125 5.12772 28.3225 4.65081 28.6742 4.29917C29.0258 3.94754 29.5027 3.75 30 3.75C30.4973 3.75 30.9742 3.94754 31.3258 4.29917C31.6775 4.65081 31.875 5.12772 31.875 5.625V24.375H41.25C42.7418 24.375 44.1726 23.7824 45.2275 22.7275C46.2824 21.6726 46.875 20.2418 46.875 18.75V18.5156C46.875 17.0859 46.3071 15.7148 45.2961 14.7039C44.2852 13.6929 42.9141 13.125 41.4844 13.125H37.5C37.0027 13.125 36.5258 12.9275 36.1742 12.5758C35.8225 12.2242 35.625 11.7473 35.625 11.25C35.625 10.7527 35.8225 10.2758 36.1742 9.92418C36.5258 9.57254 37.0027 9.375 37.5 9.375H41.4844C43.9086 9.375 46.2336 10.338 47.9478 12.0522C49.662 13.7664 50.625 16.0914 50.625 18.5156ZM13.125 22.5H7.5C7.00272 22.5 6.52581 22.3025 6.17417 21.9508C5.82254 21.5992 5.625 21.1223 5.625 20.625V18.75C5.625 16.2636 6.61272 13.879 8.37087 12.1209C10.129 10.3627 12.5136 9.375 15 9.375H22.5C22.9973 9.375 23.4742 9.57254 23.8258 9.92418C24.1775 10.2758 24.375 10.7527 24.375 11.25C24.375 11.7473 24.1775 12.2242 23.8258 12.5758C23.4742 12.9275 22.9973 13.125 22.5 13.125C22.5 14.3561 22.2575 15.5752 21.7864 16.7127C21.3152 17.8501 20.6247 18.8836 19.7541 19.7541C18.8836 20.6247 17.8501 21.3152 16.7127 21.7864C15.5752 22.2575 14.3561 22.5 13.125 22.5ZM18.75 13.125H15C13.5082 13.125 12.0774 13.7176 11.0225 14.7725C9.96763 15.8274 9.375 17.2582 9.375 18.75H13.125C14.6168 18.75 16.0476 18.1574 17.1025 17.1025C18.1574 16.0476 18.75 14.6168 18.75 13.125Z" fill="#000B2E"/>
</svg>
