<svg width="60" height="60" viewBox="0 0 60 60" fill="none" xmlns="http://www.w3.org/2000/svg">
<path d="M30 5.625C23.5353 5.625 17.3355 8.19307 12.7643 12.7643C8.19307 17.3355 5.625 23.5353 5.625 30C5.625 36.4647 8.19307 42.6645 12.7643 47.2357C17.3355 51.8069 23.5353 54.375 30 54.375C35.0414 54.375 40.3359 52.8563 44.1633 50.3133C44.3684 50.1769 44.5447 50.0015 44.682 49.797C44.8194 49.5926 44.9151 49.363 44.9638 49.1216C45.0124 48.8801 45.013 48.6314 44.9655 48.3897C44.9181 48.148 44.8235 47.918 44.6871 47.7129C44.5508 47.5078 44.3753 47.3315 44.1709 47.1941C43.9664 47.0568 43.7369 46.9611 43.4954 46.9124C43.2539 46.8638 43.0052 46.8632 42.7635 46.9106C42.5218 46.9581 42.2919 47.0527 42.0867 47.1891C38.9062 49.3078 34.268 50.625 30 50.625C25.9208 50.625 21.9331 49.4154 18.5414 47.1491C15.1496 44.8828 12.506 41.6616 10.945 37.8928C9.38393 34.1241 8.97548 29.9771 9.7713 25.9763C10.5671 21.9754 12.5315 18.3004 15.4159 15.4159C18.3004 12.5315 21.9754 10.5671 25.9763 9.7713C29.9771 8.97548 34.1241 9.38393 37.8928 10.945C41.6616 12.506 44.8828 15.1496 47.1491 18.5414C49.4154 21.9331 50.625 25.9208 50.625 30C50.625 36.1992 48.075 37.5 45.9375 37.5C43.8 37.5 41.25 36.1992 41.25 30V20.625C41.25 20.1277 41.0525 19.6508 40.7008 19.2992C40.3492 18.9475 39.8723 18.75 39.375 18.75C38.8777 18.75 38.4008 18.9475 38.0492 19.2992C37.6975 19.6508 37.5 20.1277 37.5 20.625V21.6234C35.8174 20.1148 33.7194 19.148 31.4794 18.8488C29.2394 18.5496 26.9612 18.9319 24.9416 19.946C22.9221 20.9602 21.2547 22.559 20.1568 24.5343C19.0589 26.5096 18.5814 28.7697 18.7864 31.0203C18.9914 33.2709 19.8695 35.4075 21.3062 37.1519C22.7429 38.8963 24.6717 40.1676 26.8413 40.8001C29.0108 41.4326 31.3206 41.3971 33.4697 40.6981C35.6187 39.9991 37.5075 38.669 38.8898 36.8813C40.2961 39.6937 42.7219 41.25 45.9375 41.25C51.2203 41.25 54.375 37.0453 54.375 30C54.3682 23.5374 51.7979 17.3415 47.2282 12.7718C42.6585 8.20209 36.4626 5.63182 30 5.625ZM30 37.5C28.5166 37.5 27.0666 37.0601 25.8332 36.236C24.5999 35.4119 23.6386 34.2406 23.0709 32.8701C22.5032 31.4997 22.3547 29.9917 22.6441 28.5368C22.9335 27.082 23.6478 25.7456 24.6967 24.6967C25.7456 23.6478 27.082 22.9335 28.5368 22.6441C29.9917 22.3547 31.4997 22.5032 32.8701 23.0709C34.2406 23.6386 35.4119 24.5999 36.236 25.8332C37.0601 27.0666 37.5 28.5166 37.5 30C37.5 31.9891 36.7098 33.8968 35.3033 35.3033C33.8968 36.7098 31.9891 37.5 30 37.5Z" fill="#000B2E"/>
</svg>
