<svg width="61" height="60" viewBox="0 0 61 60" fill="none" xmlns="http://www.w3.org/2000/svg">
<path d="M49.25 7.5H43.625V5.625C43.625 5.12772 43.4275 4.65081 43.0758 4.29917C42.7242 3.94754 42.2473 3.75 41.75 3.75C41.2527 3.75 40.7758 3.94754 40.4242 4.29917C40.0725 4.65081 39.875 5.12772 39.875 5.625V7.5H21.125V5.625C21.125 5.12772 20.9275 4.65081 20.5758 4.29917C20.2242 3.94754 19.7473 3.75 19.25 3.75C18.7527 3.75 18.2758 3.94754 17.9242 4.29917C17.5725 4.65081 17.375 5.12772 17.375 5.625V7.5H11.75C10.7554 7.5 9.80161 7.89509 9.09835 8.59835C8.39509 9.30161 8 10.2554 8 11.25V48.75C8 49.7446 8.39509 50.6984 9.09835 51.4016C9.80161 52.1049 10.7554 52.5 11.75 52.5H49.25C50.2446 52.5 51.1984 52.1049 51.9016 51.4016C52.6049 50.6984 53 49.7446 53 48.75V11.25C53 10.2554 52.6049 9.30161 51.9016 8.59835C51.1984 7.89509 50.2446 7.5 49.25 7.5ZM17.375 11.25V13.125C17.375 13.6223 17.5725 14.0992 17.9242 14.4508C18.2758 14.8025 18.7527 15 19.25 15C19.7473 15 20.2242 14.8025 20.5758 14.4508C20.9275 14.0992 21.125 13.6223 21.125 13.125V11.25H39.875V13.125C39.875 13.6223 40.0725 14.0992 40.4242 14.4508C40.7758 14.8025 41.2527 15 41.75 15C42.2473 15 42.7242 14.8025 43.0758 14.4508C43.4275 14.0992 43.625 13.6223 43.625 13.125V11.25H49.25V18.75H11.75V11.25H17.375ZM49.25 48.75H11.75V22.5H49.25V48.75ZM33.3125 30.9375C33.3125 31.4938 33.1475 32.0375 32.8385 32.5C32.5295 32.9626 32.0902 33.323 31.5763 33.5359C31.0624 33.7488 30.4969 33.8045 29.9513 33.696C29.4057 33.5874 28.9046 33.3196 28.5113 32.9262C28.1179 32.5329 27.8501 32.0318 27.7415 31.4862C27.633 30.9406 27.6887 30.3751 27.9016 29.8612C28.1145 29.3473 28.4749 28.908 28.9375 28.599C29.4 28.2899 29.9437 28.125 30.5 28.125C31.2459 28.125 31.9613 28.4213 32.4887 28.9488C33.0162 29.4762 33.3125 30.1916 33.3125 30.9375ZM43.625 30.9375C43.625 31.4938 43.46 32.0375 43.151 32.5C42.842 32.9626 42.4027 33.323 41.8888 33.5359C41.3749 33.7488 40.8094 33.8045 40.2638 33.696C39.7182 33.5874 39.2171 33.3196 38.8238 32.9262C38.4304 32.5329 38.1626 32.0318 38.054 31.4862C37.9455 30.9406 38.0012 30.3751 38.2141 29.8612C38.427 29.3473 38.7874 28.908 39.25 28.599C39.7125 28.2899 40.2562 28.125 40.8125 28.125C41.5584 28.125 42.2738 28.4213 42.8012 28.9488C43.3287 29.4762 43.625 30.1916 43.625 30.9375ZM23 40.3125C23 40.8688 22.8351 41.4125 22.526 41.875C22.217 42.3376 21.7777 42.698 21.2638 42.9109C20.7499 43.1238 20.1844 43.1795 19.6388 43.071C19.0932 42.9624 18.5921 42.6946 18.1988 42.3012C17.8054 41.9079 17.5376 41.4068 17.429 40.8612C17.3205 40.3156 17.3762 39.7501 17.5891 39.2362C17.802 38.7223 18.1624 38.283 18.625 37.974C19.0875 37.665 19.6312 37.5 20.1875 37.5C20.9334 37.5 21.6488 37.7963 22.1762 38.3238C22.7037 38.8512 23 39.5666 23 40.3125ZM33.3125 40.3125C33.3125 40.8688 33.1475 41.4125 32.8385 41.875C32.5295 42.3376 32.0902 42.698 31.5763 42.9109C31.0624 43.1238 30.4969 43.1795 29.9513 43.071C29.4057 42.9624 28.9046 42.6946 28.5113 42.3012C28.1179 41.9079 27.8501 41.4068 27.7415 40.8612C27.633 40.3156 27.6887 39.7501 27.9016 39.2362C28.1145 38.7223 28.4749 38.283 28.9375 37.974C29.4 37.665 29.9437 37.5 30.5 37.5C31.2459 37.5 31.9613 37.7963 32.4887 38.3238C33.0162 38.8512 33.3125 39.5666 33.3125 40.3125ZM43.625 40.3125C43.625 40.8688 43.46 41.4125 43.151 41.875C42.842 42.3376 42.4027 42.698 41.8888 42.9109C41.3749 43.1238 40.8094 43.1795 40.2638 43.071C39.7182 42.9624 39.2171 42.6946 38.8238 42.3012C38.4304 41.9079 38.1626 41.4068 38.054 40.8612C37.9455 40.3156 38.0012 39.7501 38.2141 39.2362C38.427 38.7223 38.7874 38.283 39.25 37.974C39.7125 37.665 40.2562 37.5 40.8125 37.5C41.5584 37.5 42.2738 37.7963 42.8012 38.3238C43.3287 38.8512 43.625 39.5666 43.625 40.3125Z" fill="#000B2E"/>
</svg>
