<svg width="61" height="60" viewBox="0 0 61 60" fill="none" xmlns="http://www.w3.org/2000/svg">
<path d="M49.25 7.5H43.625V5.625C43.625 5.12772 43.4275 4.65081 43.0758 4.29917C42.7242 3.94754 42.2473 3.75 41.75 3.75C41.2527 3.75 40.7758 3.94754 40.4242 4.29917C40.0725 4.65081 39.875 5.12772 39.875 5.625V7.5H21.125V5.625C21.125 5.12772 20.9275 4.65081 20.5758 4.29917C20.2242 3.94754 19.7473 3.75 19.25 3.75C18.7527 3.75 18.2758 3.94754 17.9242 4.29917C17.5725 4.65081 17.375 5.12772 17.375 5.625V7.5H11.75C10.7554 7.5 9.80161 7.89509 9.09835 8.59835C8.39509 9.30161 8 10.2554 8 11.25V48.75C8 49.7446 8.39509 50.6984 9.09835 51.4016C9.80161 52.1049 10.7554 52.5 11.75 52.5H49.25C50.2446 52.5 51.1984 52.1049 51.9016 51.4016C52.6049 50.6984 53 49.7446 53 48.75V11.25C53 10.2554 52.6049 9.30161 51.9016 8.59835C51.1984 7.89509 50.2446 7.5 49.25 7.5ZM17.375 11.25V13.125C17.375 13.6223 17.5725 14.0992 17.9242 14.4508C18.2758 14.8025 18.7527 15 19.25 15C19.7473 15 20.2242 14.8025 20.5758 14.4508C20.9275 14.0992 21.125 13.6223 21.125 13.125V11.25H39.875V13.125C39.875 13.6223 40.0725 14.0992 40.4242 14.4508C40.7758 14.8025 41.2527 15 41.75 15C42.2473 15 42.7242 14.8025 43.0758 14.4508C43.4275 14.0992 43.625 13.6223 43.625 13.125V11.25H49.25V18.75H11.75V11.25H17.375ZM49.25 48.75H11.75V22.5H49.25V48.75Z" fill="black"/>
</svg>
