<svg width="61" height="60" viewBox="0 0 61 60" fill="none" xmlns="http://www.w3.org/2000/svg">
<path d="M13.0765 21.1739C12.9023 20.9997 12.6955 20.8615 12.4679 20.7672C12.2402 20.673 11.9963 20.6244 11.7499 20.6244C11.5036 20.6244 11.2596 20.673 11.032 20.7672C10.8044 20.8615 10.5976 20.9997 10.4234 21.1739C10.2492 21.3481 10.111 21.5549 10.0167 21.7825C9.92241 22.0102 9.87389 22.2541 9.87389 22.5005C9.87389 22.7468 9.92241 22.9908 10.0167 23.2184C10.111 23.446 10.2492 23.6528 10.4234 23.827L29.1734 42.577C29.3475 42.7514 29.5543 42.8897 29.7819 42.984C30.0095 43.0784 30.2535 43.127 30.4999 43.127C30.7463 43.127 30.9903 43.0784 31.2179 42.984C31.4456 42.8897 31.6524 42.7514 31.8265 42.577L50.5765 23.827C50.9283 23.4752 51.126 22.998 51.126 22.5005C51.126 22.0029 50.9283 21.5257 50.5765 21.1739C50.2247 20.8221 49.7475 20.6244 49.2499 20.6244C48.7524 20.6244 48.2752 20.8221 47.9234 21.1739L30.4999 38.5997L13.0765 21.1739Z" fill="#000B2E"/>
</svg>
