<svg width="61" height="60" viewBox="0 0 61 60" fill="none" xmlns="http://www.w3.org/2000/svg">
<path d="M21.6734 47.4225C21.4992 47.5967 21.361 47.8036 21.2668 48.0312C21.1725 48.2588 21.1239 48.5027 21.1239 48.7491C21.1239 48.9955 21.1725 49.2394 21.2668 49.467C21.361 49.6946 21.4992 49.9015 21.6734 50.0757C21.8476 50.2499 22.0544 50.3881 22.2821 50.4823C22.5097 50.5766 22.7536 50.6251 23 50.6251C23.2464 50.6251 23.4903 50.5766 23.7179 50.4823C23.9455 50.3881 24.1523 50.2499 24.3266 50.0757L43.0766 31.3257C43.2509 31.1515 43.3892 30.9447 43.4835 30.7171C43.5779 30.4895 43.6265 30.2455 43.6265 29.9991C43.6265 29.7527 43.5779 29.5087 43.4835 29.2811C43.3892 29.0535 43.2509 28.8467 43.0766 28.6725L24.3266 9.92253C23.9747 9.5707 23.4975 9.37305 23 9.37305C22.5024 9.37305 22.0253 9.5707 21.6734 9.92253C21.3216 10.2744 21.1239 10.7515 21.1239 11.2491C21.1239 11.7466 21.3216 12.2238 21.6734 12.5757L39.0992 29.9991L21.6734 47.4225Z" fill="#000B2E"/>
</svg>
