<svg width="61" height="60" viewBox="0 0 61 60" fill="none" xmlns="http://www.w3.org/2000/svg">
<path d="M30.4986 18.7504V28.9386L22.033 34.0175C21.6066 34.2736 21.2993 34.6886 21.1789 35.1713C21.0585 35.6539 21.1347 36.1646 21.3908 36.591C21.6469 37.0174 22.0619 37.3246 22.5445 37.445C23.0271 37.5655 23.5378 37.4893 23.9642 37.2332L33.3392 31.6082C33.6167 31.4415 33.8463 31.2058 34.0056 30.924C34.165 30.6423 34.2487 30.3241 34.2486 30.0004V18.7504C34.2486 18.2531 34.0511 17.7762 33.6994 17.4245C33.3478 17.0729 32.8709 16.8754 32.3736 16.8754C31.8763 16.8754 31.3994 17.0729 31.0478 17.4245C30.6961 17.7762 30.4986 18.2531 30.4986 18.7504ZM9.8736 13.1254C10.3709 13.1254 10.8478 13.3229 11.1994 13.6745C11.5511 14.0262 11.7486 14.5031 11.7486 15.0004V19.2191C13.2369 17.4941 14.7556 15.8324 16.4642 14.1027C19.5911 10.9754 23.5703 8.83901 27.9045 7.96033C32.2387 7.08165 36.7357 7.49969 40.8336 9.16223C44.9316 10.8248 48.4487 13.6581 50.9456 17.3081C53.4425 20.9582 54.8084 25.2631 54.8726 29.685C54.9369 34.1069 53.6966 38.4496 51.3067 42.1706C48.9169 45.8917 45.4835 48.8259 41.4356 50.6068C37.3876 52.3876 32.9047 52.9361 28.5468 52.1837C24.1889 51.4312 20.1494 49.4113 16.933 46.3761C16.7538 46.2068 16.6098 46.0039 16.5091 45.779C16.4084 45.5541 16.353 45.3115 16.346 45.0651C16.339 44.8187 16.3807 44.5734 16.4685 44.3431C16.5563 44.1129 16.6887 43.9021 16.858 43.723C17.0273 43.5439 17.2302 43.3998 17.4551 43.2991C17.6801 43.1984 17.9226 43.143 18.169 43.136C18.4154 43.1291 18.6607 43.1707 18.891 43.2585C19.1212 43.3464 19.332 43.4787 19.5111 43.648C22.1922 46.1747 25.5584 47.8556 29.1891 48.4808C32.8198 49.1059 36.5543 48.6476 39.9261 47.163C43.2979 45.6784 46.1576 43.2334 48.1482 40.1333C50.1387 37.0332 51.1719 33.4154 51.1186 29.7316C51.0654 26.0479 49.9281 22.4614 47.8487 19.4201C45.7694 16.3789 42.8402 14.0176 39.4269 12.6311C36.0136 11.2446 32.2674 10.8944 28.6563 11.6242C25.0451 12.3541 21.729 14.1315 19.122 16.7347C17.2142 18.666 15.5431 20.5269 13.858 22.5004H19.2486C19.7459 22.5004 20.2228 22.6979 20.5744 23.0495C20.9261 23.4012 21.1236 23.8781 21.1236 24.3754C21.1236 24.8726 20.9261 25.3495 20.5744 25.7012C20.2228 26.0528 19.7459 26.2504 19.2486 26.2504H9.8736C9.37632 26.2504 8.8994 26.0528 8.54777 25.7012C8.19614 25.3495 7.9986 24.8726 7.9986 24.3754V15.0004C7.9986 14.5031 8.19614 14.0262 8.54777 13.6745C8.8994 13.3229 9.37632 13.1254 9.8736 13.1254Z" fill="#000B2E"/>
</svg>
