<svg width="61" height="60" viewBox="0 0 61 60" fill="none" xmlns="http://www.w3.org/2000/svg">
<path d="M53 11.25H8C7.00544 11.25 6.05161 11.6451 5.34835 12.3483C4.64509 13.0516 4.25 14.0054 4.25 15V45C4.25 45.9946 4.64509 46.9484 5.34835 47.6516C6.05161 48.3549 7.00544 48.75 8 48.75H53C53.9946 48.75 54.9484 48.3549 55.6516 47.6516C56.3549 46.9484 56.75 45.9946 56.75 45V15C56.75 14.0054 56.3549 13.0516 55.6516 12.3483C54.9484 11.6451 53.9946 11.25 53 11.25ZM53 15V20.625H8V15H53ZM53 45H8V24.375H53V45ZM49.25 39.375C49.25 39.8723 49.0525 40.3492 48.7008 40.7008C48.3492 41.0525 47.8723 41.25 47.375 41.25H39.875C39.3777 41.25 38.9008 41.0525 38.5492 40.7008C38.1975 40.3492 38 39.8723 38 39.375C38 38.8777 38.1975 38.4008 38.5492 38.0492C38.9008 37.6975 39.3777 37.5 39.875 37.5H47.375C47.8723 37.5 48.3492 37.6975 48.7008 38.0492C49.0525 38.4008 49.25 38.8777 49.25 39.375ZM34.25 39.375C34.25 39.8723 34.0525 40.3492 33.7008 40.7008C33.3492 41.0525 32.8723 41.25 32.375 41.25H28.625C28.1277 41.25 27.6508 41.0525 27.2992 40.7008C26.9475 40.3492 26.75 39.8723 26.75 39.375C26.75 38.8777 26.9475 38.4008 27.2992 38.0492C27.6508 37.6975 28.1277 37.5 28.625 37.5H32.375C32.8723 37.5 33.3492 37.6975 33.7008 38.0492C34.0525 38.4008 34.25 38.8777 34.25 39.375Z" fill="black"/>
</svg>
