<svg width="60" height="60" viewBox="0 0 60 60" fill="none" xmlns="http://www.w3.org/2000/svg">
<path d="M32.8125 30C32.8125 30.5563 32.6475 31.1 32.3385 31.5625C32.0295 32.0251 31.5902 32.3855 31.0763 32.5984C30.5624 32.8113 29.9969 32.867 29.4513 32.7585C28.9057 32.6499 28.4046 32.3821 28.0113 31.9887C27.6179 31.5954 27.3501 31.0943 27.2415 30.5487C27.133 30.0031 27.1887 29.4376 27.4016 28.9237C27.6145 28.4098 27.9749 27.9705 28.4375 27.6615C28.9 27.3525 29.4437 27.1875 30 27.1875C30.7459 27.1875 31.4613 27.4838 31.9887 28.0113C32.5162 28.5387 32.8125 29.2541 32.8125 30ZM30 16.875C30.5563 16.875 31.1 16.7101 31.5625 16.401C32.0251 16.092 32.3855 15.6527 32.5984 15.1388C32.8113 14.6249 32.867 14.0594 32.7585 13.5138C32.6499 12.9682 32.3821 12.4671 31.9887 12.0738C31.5954 11.6804 31.0943 11.4126 30.5487 11.304C30.0031 11.1955 29.4376 11.2512 28.9237 11.4641C28.4098 11.677 27.9705 12.0374 27.6615 12.5C27.3525 12.9625 27.1875 13.5062 27.1875 14.0625C27.1875 14.8084 27.4838 15.5238 28.0113 16.0512C28.5387 16.5787 29.2541 16.875 30 16.875ZM30 43.125C29.4437 43.125 28.9 43.29 28.4375 43.599C27.9749 43.908 27.6145 44.3473 27.4016 44.8612C27.1887 45.3751 27.133 45.9406 27.2415 46.4862C27.3501 47.0318 27.6179 47.5329 28.0113 47.9262C28.4046 48.3196 28.9057 48.5874 29.4513 48.696C29.9969 48.8045 30.5624 48.7488 31.0763 48.5359C31.5902 48.323 32.0295 47.9626 32.3385 47.5C32.6475 47.0375 32.8125 46.4938 32.8125 45.9375C32.8125 45.1916 32.5162 44.4762 31.9887 43.9488C31.4613 43.4213 30.7459 43.125 30 43.125Z" fill="#000B2E"/>
</svg>
