<svg width="61" height="60" viewBox="0 0 61 60" fill="none" xmlns="http://www.w3.org/2000/svg">
<path d="M53 11.25H8C7.50272 11.25 7.02581 11.4475 6.67417 11.7992C6.32254 12.1508 6.125 12.6277 6.125 13.125V45C6.125 45.9946 6.52009 46.9484 7.22335 47.6516C7.92661 48.3549 8.88044 48.75 9.875 48.75H51.125C52.1196 48.75 53.0734 48.3549 53.7766 47.6516C54.4799 46.9484 54.875 45.9946 54.875 45V13.125C54.875 12.6277 54.6775 12.1508 54.3258 11.7992C53.9742 11.4475 53.4973 11.25 53 11.25ZM30.5 31.207L12.8211 15H48.1789L30.5 31.207ZM23.6352 30L9.875 42.6117V17.3883L23.6352 30ZM26.4102 32.543L29.2227 35.1328C29.5686 35.4504 30.0211 35.6266 30.4906 35.6266C30.9602 35.6266 31.4127 35.4504 31.7586 35.1328L34.5711 32.543L48.1648 45H12.8211L26.4102 32.543ZM37.3648 30L51.125 17.3859V42.6141L37.3648 30Z" fill="#000B2E"/>
</svg>
