<svg width="61" height="60" viewBox="0 0 61 60" fill="none" xmlns="http://www.w3.org/2000/svg">
<path d="M13.1375 8.11312C12.9728 7.92751 12.773 7.77643 12.5495 7.66863C12.326 7.56083 12.0833 7.49846 11.8356 7.48513C11.5878 7.4718 11.3399 7.50778 11.1061 7.59098C10.8724 7.67418 10.6575 7.80295 10.4738 7.96982C10.2902 8.13669 10.1415 8.33835 10.0364 8.56311C9.93131 8.78786 9.87185 9.03125 9.86149 9.27915C9.85113 9.52706 9.89008 9.77455 9.97608 10.0073C10.0621 10.24 10.1934 10.4534 10.3625 10.635L14.8719 15.5967C6.35935 20.8209 2.69842 28.8741 2.5367 29.2397C2.43009 29.4795 2.375 29.739 2.375 30.0014C2.375 30.2638 2.43009 30.5233 2.5367 30.7631C2.61873 30.9483 4.60388 35.3498 9.01717 39.7631C14.8976 45.6412 22.325 48.7491 30.5 48.7491C34.7014 48.773 38.8604 47.908 42.7039 46.2108L47.8601 51.885C48.0248 52.0706 48.2247 52.2217 48.4481 52.3295C48.6716 52.4373 48.9143 52.4997 49.162 52.513C49.4098 52.5263 49.6577 52.4903 49.8915 52.4071C50.1252 52.3239 50.3402 52.1952 50.5238 52.0283C50.7074 51.8614 50.8561 51.6598 50.9612 51.435C51.0663 51.2103 51.1258 50.9669 51.1361 50.719C51.1465 50.4711 51.1075 50.2236 51.0215 49.9908C50.9355 49.7581 50.8042 49.5447 50.6351 49.3631L13.1375 8.11312ZM24.2304 25.8881L33.9969 36.6342C32.5261 37.4079 30.8401 37.6713 29.2035 37.3829C27.5669 37.0945 26.0724 36.2708 24.9547 35.0409C23.837 33.8111 23.1594 32.245 23.0283 30.5883C22.8973 28.9317 23.3201 27.2784 24.2304 25.8881ZM30.5 44.9991C23.2859 44.9991 16.9836 42.3764 11.7664 37.2061C9.62494 35.0779 7.80362 32.6503 6.35935 29.9991C7.45857 27.9389 10.9672 22.1733 17.457 18.4256L21.6758 23.0545C20.0425 25.1463 19.2013 27.7482 19.3009 30.4002C19.4005 33.0523 20.4345 35.5837 22.2201 37.5471C24.0056 39.5105 26.4278 40.7795 29.0585 41.1297C31.6893 41.4798 34.3591 40.8887 36.5961 39.4608L40.0484 43.2577C37.0015 44.4266 33.7634 45.0172 30.5 44.9991ZM31.9062 22.6327C31.4177 22.5394 30.9861 22.2559 30.7066 21.8445C30.427 21.4331 30.3224 20.9275 30.4156 20.4389C30.5088 19.9503 30.7924 19.5188 31.2038 19.2392C31.6152 18.9597 32.1208 18.855 32.6094 18.9483C34.9991 19.4116 37.175 20.635 38.8125 22.436C40.4501 24.237 41.4616 26.5192 41.6961 28.942C41.7424 29.4371 41.5901 29.9303 41.2728 30.3132C40.9554 30.696 40.499 30.9371 40.0039 30.9834C39.9453 30.9869 39.8866 30.9869 39.8281 30.9834C39.3595 30.9854 38.9071 30.8119 38.56 30.4969C38.213 30.182 37.9964 29.7485 37.9531 29.2819C37.7953 27.6703 37.1215 26.1527 36.0321 24.9547C34.9426 23.7567 33.4956 22.9423 31.9062 22.6327ZM58.4562 30.7631C58.3578 30.9834 55.9836 36.2405 50.6375 41.0287C50.4548 41.1976 50.2404 41.3284 50.0067 41.4135C49.7729 41.4986 49.5246 41.5364 49.2762 41.5247C49.0277 41.5129 48.7841 41.4518 48.5595 41.345C48.3348 41.2381 48.1337 41.0876 47.9678 40.9023C47.8019 40.717 47.6746 40.5005 47.5932 40.2654C47.5117 40.0304 47.4779 39.7815 47.4936 39.5333C47.5093 39.285 47.5743 39.0424 47.6847 38.8195C47.7951 38.5966 47.9487 38.3979 48.1367 38.235C50.7595 35.8786 52.9627 33.0937 54.6523 29.9991C53.2049 27.3454 51.3796 24.9161 49.2336 22.7873C44.0164 17.6217 37.714 14.9991 30.5 14.9991C28.98 14.9972 27.4623 15.1203 25.9625 15.367C25.7186 15.4102 25.4685 15.4045 25.2268 15.3505C24.9851 15.2964 24.7565 15.195 24.5542 15.0521C24.3519 14.9092 24.1799 14.7276 24.0481 14.5179C23.9164 14.3081 23.8275 14.0744 23.7867 13.8301C23.7458 13.5858 23.7537 13.3358 23.81 13.0946C23.8663 12.8534 23.9698 12.6257 24.1146 12.4247C24.2594 12.2238 24.4425 12.0535 24.6535 11.9237C24.8645 11.7939 25.0991 11.7072 25.3437 11.6686C27.048 11.3872 28.7726 11.2469 30.5 11.2491C38.675 11.2491 46.1023 14.3569 51.9828 20.2373C56.3961 24.6506 58.3812 29.0545 58.4633 29.2397C58.5699 29.4795 58.625 29.739 58.625 30.0014C58.625 30.2638 58.5699 30.5233 58.4633 30.7631H58.4562Z" fill="#000B2E"/>
</svg>
