<svg width="60" height="60" viewBox="0 0 60 60" fill="none" xmlns="http://www.w3.org/2000/svg">
<path d="M50 20H38.75V8.75C38.75 7.75544 38.3549 6.80161 37.6516 6.09835C36.9484 5.39509 35.9946 5 35 5H23.75C22.7554 5 21.8016 5.39509 21.0984 6.09835C20.3951 6.80161 20 7.75544 20 8.75V20H8.75C7.75544 20 6.80161 20.3951 6.09835 21.0984C5.39509 21.8016 5 22.7554 5 23.75V35C5 35.9946 5.39509 36.9484 6.09835 37.6516C6.80161 38.3549 7.75544 38.75 8.75 38.75H20V50C20 50.9946 20.3951 51.9484 21.0984 52.6516C21.8016 53.3549 22.7554 53.75 23.75 53.75H35C35.9946 53.75 36.9484 53.3549 37.6516 52.6516C38.3549 51.9484 38.75 50.9946 38.75 50V38.75H50C50.9946 38.75 51.9484 38.3549 52.6516 37.6516C53.3549 36.9484 53.75 35.9946 53.75 35V23.75C53.75 22.7554 53.3549 21.8016 52.6516 21.0984C51.9484 20.3951 50.9946 20 50 20ZM50 35H36.875C36.3777 35 35.9008 35.1975 35.5492 35.5492C35.1975 35.9008 35 36.3777 35 36.875V50H23.75V36.875C23.75 36.3777 23.5525 35.9008 23.2008 35.5492C22.8492 35.1975 22.3723 35 21.875 35H8.75V23.75H21.875C22.3723 23.75 22.8492 23.5525 23.2008 23.2008C23.5525 22.8492 23.75 22.3723 23.75 21.875V8.75H35V21.875C35 22.3723 35.1975 22.8492 35.5492 23.2008C35.9008 23.5525 36.3777 23.75 36.875 23.75H50V35Z" fill="#000B2E"/>
</svg>
