<svg width="60" height="60" viewBox="0 0 60 60" fill="none" xmlns="http://www.w3.org/2000/svg">
<path d="M30 18.7509C27.7749 18.7509 25.5998 19.4107 23.7498 20.6469C21.8997 21.8831 20.4578 23.6401 19.6063 25.6957C18.7548 27.7514 18.532 30.0134 18.9661 32.1957C19.4002 34.378 20.4717 36.3825 22.045 37.9559C23.6183 39.5292 25.6229 40.6007 27.8052 41.0348C29.9875 41.4689 32.2495 41.2461 34.3051 40.3946C36.3608 39.5431 38.1178 38.1012 39.354 36.2511C40.5902 34.401 41.25 32.226 41.25 30.0009C41.2469 27.0182 40.0606 24.1585 37.9515 22.0494C35.8424 19.9403 32.9827 18.754 30 18.7509ZM30 37.5009C28.5166 37.5009 27.0665 37.0611 25.8332 36.237C24.5998 35.4128 23.6385 34.2415 23.0709 32.8711C22.5032 31.5006 22.3547 29.9926 22.6441 28.5378C22.9335 27.0829 23.6478 25.7465 24.6967 24.6976C25.7456 23.6487 27.0819 22.9344 28.5368 22.645C29.9916 22.3557 31.4996 22.5042 32.8701 23.0718C34.2405 23.6395 35.4119 24.6008 36.236 25.8342C37.0601 27.0675 37.5 28.5176 37.5 30.0009C37.5 31.9901 36.7098 33.8977 35.3033 35.3042C33.8967 36.7108 31.9891 37.5009 30 37.5009ZM55.7671 25.1283C55.7149 24.8642 55.6065 24.6145 55.4491 24.3962C55.2918 24.1778 55.0893 23.9958 54.8554 23.8626L47.864 19.8783L47.8359 11.9986C47.835 11.7272 47.7753 11.4593 47.6608 11.2132C47.5463 10.9672 47.3797 10.749 47.1726 10.5736C44.6365 8.42835 41.716 6.78437 38.5664 5.72906C38.3183 5.6451 38.0555 5.61403 37.7947 5.63785C37.5339 5.66167 37.281 5.73984 37.0523 5.86734L30 9.80953L22.9406 5.86031C22.7117 5.73209 22.4585 5.65333 22.1973 5.6291C21.9361 5.60488 21.6727 5.63574 21.4242 5.71968C18.2769 6.78271 15.3597 8.43296 12.8273 10.583C12.6205 10.7581 12.4541 10.9759 12.3396 11.2215C12.2251 11.4671 12.1652 11.7346 12.164 12.0056L12.1289 19.8923L5.13746 23.8767C4.90356 24.0099 4.70106 24.1918 4.54374 24.4102C4.38642 24.6286 4.27796 24.8783 4.22574 25.1423C3.58589 28.3577 3.58589 31.6676 4.22574 34.883C4.27796 35.147 4.38642 35.3967 4.54374 35.6151C4.70106 35.8335 4.90356 36.0154 5.13746 36.1486L12.1289 40.133L12.157 48.0127C12.1578 48.284 12.2176 48.552 12.3321 48.798C12.4466 49.044 12.6132 49.2623 12.8203 49.4376C15.3564 51.5829 18.2769 53.2269 21.4265 54.2822C21.6746 54.3661 21.9374 54.3972 22.1982 54.3734C22.459 54.3496 22.7119 54.2714 22.9406 54.1439L30 50.1923L37.0593 54.1416C37.3387 54.2972 37.6536 54.378 37.9734 54.3759C38.1782 54.3759 38.3816 54.3426 38.5757 54.2775C41.7227 53.2159 44.6398 51.5672 47.1726 49.4189C47.3794 49.2438 47.5458 49.0259 47.6603 48.7803C47.7748 48.5347 47.8347 48.2672 47.8359 47.9962L47.8711 40.1095L54.8625 36.1252C55.0964 35.992 55.2989 35.81 55.4562 35.5916C55.6135 35.3733 55.722 35.1236 55.7742 34.8595C56.4105 31.6467 56.4081 28.3401 55.7671 25.1283ZM52.2515 33.3103L45.5554 37.1189C45.262 37.2857 45.0191 37.5286 44.8523 37.822C44.7164 38.0564 44.5734 38.3048 44.4281 38.5392C44.2421 38.8348 44.143 39.1767 44.1421 39.5259L44.107 47.0845C42.3072 48.4979 40.302 49.6282 38.1609 50.4361L31.4062 46.672C31.1258 46.5169 30.8103 46.4362 30.4898 46.4377H30.4453C30.1617 46.4377 29.8757 46.4377 29.5921 46.4377C29.2567 46.4293 28.9251 46.5102 28.6312 46.672L21.8718 50.4455C19.7262 49.6437 17.7155 48.519 15.9093 47.1103L15.8836 39.5634C15.8824 39.2135 15.7833 38.8709 15.5976 38.5744C15.4523 38.34 15.3093 38.1056 15.1757 37.8572C15.0101 37.5593 14.7672 37.3115 14.4726 37.14L7.76949 33.322C7.42261 31.1278 7.42261 28.8928 7.76949 26.6986L14.4539 22.883C14.7472 22.7161 14.9902 22.4732 15.157 22.1798C15.2929 21.9455 15.4359 21.697 15.5812 21.4627C15.7672 21.1671 15.8663 20.8252 15.8671 20.4759L15.9023 12.9173C17.7021 11.5039 19.7073 10.3737 21.8484 9.56578L28.5937 13.3298C28.8873 13.4926 29.2191 13.5735 29.5546 13.5642C29.8382 13.5642 30.1242 13.5642 30.4078 13.5642C30.7432 13.5726 31.0748 13.4917 31.3687 13.3298L38.1281 9.5564C40.2738 10.3581 42.2844 11.4828 44.0906 12.8916L44.1164 20.4384C44.1175 20.7883 44.2166 21.1309 44.4023 21.4275C44.5476 21.6619 44.6906 21.8962 44.8242 22.1447C44.9898 22.4426 45.2327 22.6904 45.5273 22.8619L52.2304 26.6798C52.5819 28.8757 52.5859 31.1132 52.2421 33.3103H52.2515Z" fill="#000B2E"/>
</svg>
