<svg width="60" height="60" viewBox="0 0 60 60" fill="none" xmlns="http://www.w3.org/2000/svg">
<path d="M58.125 48.75H56.25V30C56.25 29.0054 55.8549 28.0516 55.1516 27.3484C54.4484 26.6451 53.4946 26.25 52.5 26.25H39.375V11.25C39.375 10.2554 38.9799 9.30161 38.2766 8.59835C37.5734 7.89509 36.6196 7.5 35.625 7.5H13.125C12.1304 7.5 11.1766 7.89509 10.4733 8.59835C9.77009 9.30161 9.375 10.2554 9.375 11.25V48.75H7.5C7.00272 48.75 6.52581 48.9475 6.17417 49.2992C5.82254 49.6508 5.625 50.1277 5.625 50.625C5.625 51.1223 5.82254 51.5992 6.17417 51.9508C6.52581 52.3025 7.00272 52.5 7.5 52.5H58.125C58.6223 52.5 59.0992 52.3025 59.4508 51.9508C59.8025 51.5992 60 51.1223 60 50.625C60 50.1277 59.8025 49.6508 59.4508 49.2992C59.0992 48.9475 58.6223 48.75 58.125 48.75ZM52.5 30V48.75H39.375V30H52.5ZM13.125 11.25H35.625V48.75H31.875V37.5C31.875 37.0027 31.6775 36.5258 31.3258 36.1742C30.9742 35.8225 30.4973 35.625 30 35.625H18.75C18.2527 35.625 17.7758 35.8225 17.4242 36.1742C17.0725 36.5258 16.875 37.0027 16.875 37.5V48.75H13.125V11.25ZM28.125 48.75H20.625V39.375H28.125V48.75ZM16.875 22.5C16.875 22.0027 17.0725 21.5258 17.4242 21.1742C17.7758 20.8225 18.2527 20.625 18.75 20.625H22.5V16.875C22.5 16.3777 22.6975 15.9008 23.0492 15.5492C23.4008 15.1975 23.8777 15 24.375 15C24.8723 15 25.3492 15.1975 25.7008 15.5492C26.0525 15.9008 26.25 16.3777 26.25 16.875V20.625H30C30.4973 20.625 30.9742 20.8225 31.3258 21.1742C31.6775 21.5258 31.875 22.0027 31.875 22.5C31.875 22.9973 31.6775 23.4742 31.3258 23.8258C30.9742 24.1775 30.4973 24.375 30 24.375H26.25V28.125C26.25 28.6223 26.0525 29.0992 25.7008 29.4508C25.3492 29.8025 24.8723 30 24.375 30C23.8777 30 23.4008 29.8025 23.0492 29.4508C22.6975 29.0992 22.5 28.6223 22.5 28.125V24.375H18.75C18.2527 24.375 17.7758 24.1775 17.4242 23.8258C17.0725 23.4742 16.875 22.9973 16.875 22.5Z" fill="#000B2E"/>
</svg>
