<svg width="61" height="60" viewBox="0 0 61 60" fill="none" xmlns="http://www.w3.org/2000/svg">
<path d="M51.9008 25.4725L33.1508 6.72248C32.4476 6.01975 31.4942 5.625 30.5 5.625C29.5059 5.625 28.5524 6.01975 27.8492 6.72248L9.09924 25.4725C8.74933 25.8198 8.47196 26.2332 8.28325 26.6887C8.09454 27.1442 7.99827 27.6326 8.00002 28.1256V50.6256C8.00002 51.1229 8.19757 51.5998 8.5492 51.9514C8.90083 52.3031 9.37774 52.5006 9.87502 52.5006H24.875C25.3723 52.5006 25.8492 52.3031 26.2008 51.9514C26.5525 51.5998 26.75 51.1229 26.75 50.6256V37.5006H34.25V50.6256C34.25 51.1229 34.4476 51.5998 34.7992 51.9514C35.1508 52.3031 35.6277 52.5006 36.125 52.5006H51.125C51.6223 52.5006 52.0992 52.3031 52.4509 51.9514C52.8025 51.5998 53 51.1229 53 50.6256V28.1256C53.0018 27.6326 52.9055 27.1442 52.7168 26.6887C52.5281 26.2332 52.2507 25.8198 51.9008 25.4725ZM49.25 48.7506H38V35.6256C38 35.1283 37.8025 34.6514 37.4508 34.2998C37.0992 33.9482 36.6223 33.7506 36.125 33.7506H24.875C24.3777 33.7506 23.9008 33.9482 23.5492 34.2998C23.1976 34.6514 23 35.1283 23 35.6256V48.7506H11.75V28.1256L30.5 9.37561L49.25 28.1256V48.7506Z" fill="black"/>
</svg>
