<svg width="61" height="60" viewBox="0 0 61 60" fill="none" xmlns="http://www.w3.org/2000/svg">
<path d="M53 30C53 30.4973 52.8025 30.9742 52.4508 31.3258C52.0992 31.6775 51.6223 31.875 51.125 31.875H9.875C9.37772 31.875 8.90081 31.6775 8.54918 31.3258C8.19754 30.9742 8 30.4973 8 30C8 29.5027 8.19754 29.0258 8.54918 28.6742C8.90081 28.3225 9.37772 28.125 9.875 28.125H51.125C51.6223 28.125 52.0992 28.3225 52.4508 28.6742C52.8025 29.0258 53 29.5027 53 30ZM9.875 16.875H51.125C51.6223 16.875 52.0992 16.6775 52.4508 16.3258C52.8025 15.9742 53 15.4973 53 15C53 14.5027 52.8025 14.0258 52.4508 13.6742C52.0992 13.3225 51.6223 13.125 51.125 13.125H9.875C9.37772 13.125 8.90081 13.3225 8.54918 13.6742C8.19754 14.0258 8 14.5027 8 15C8 15.4973 8.19754 15.9742 8.54918 16.3258C8.90081 16.6775 9.37772 16.875 9.875 16.875ZM51.125 43.125H9.875C9.37772 43.125 8.90081 43.3225 8.54918 43.6742C8.19754 44.0258 8 44.5027 8 45C8 45.4973 8.19754 45.9742 8.54918 46.3258C8.90081 46.6775 9.37772 46.875 9.875 46.875H51.125C51.6223 46.875 52.0992 46.6775 52.4508 46.3258C52.8025 45.9742 53 45.4973 53 45C53 44.5027 52.8025 44.0258 52.4508 43.6742C52.0992 43.3225 51.6223 43.125 51.125 43.125Z" fill="#000B2E"/>
</svg>
