<svg width="61" height="60" viewBox="0 0 61 60" fill="none" xmlns="http://www.w3.org/2000/svg">
<path d="M54.3266 13.673L46.8266 6.17296C46.6524 5.99863 46.4456 5.86033 46.218 5.76597C45.9904 5.67161 45.7464 5.62305 45.5 5.62305C45.2536 5.62305 45.0096 5.67161 44.782 5.76597C44.5544 5.86033 44.3476 5.99863 44.1734 6.17296L21.6734 28.673C21.4994 28.8472 21.3613 29.0541 21.2672 29.2817C21.1731 29.5093 21.1248 29.7532 21.125 29.9995V37.4995C21.125 37.9968 21.3225 38.4737 21.6742 38.8253C22.0258 39.177 22.5027 39.3745 23 39.3745H30.5C30.7463 39.3747 30.9902 39.3264 31.2178 39.2323C31.4455 39.1382 31.6523 39.0001 31.8266 38.8261L54.3266 16.3261C54.5009 16.1519 54.6392 15.9452 54.7336 15.7175C54.8279 15.4899 54.8765 15.2459 54.8765 14.9995C54.8765 14.7531 54.8279 14.5091 54.7336 14.2815C54.6392 14.0539 54.5009 13.8471 54.3266 13.673ZM29.7242 35.6245H24.875V30.7753L39.875 15.7753L44.7242 20.6245L29.7242 35.6245ZM47.375 17.9737L42.5258 13.1245L45.5 10.1503L50.3492 14.9995L47.375 17.9737ZM53 29.9995V48.7495C53 49.7441 52.6049 50.6979 51.9016 51.4012C51.1984 52.1044 50.2446 52.4995 49.25 52.4995H11.75C10.7554 52.4995 9.80161 52.1044 9.09835 51.4012C8.39509 50.6979 8 49.7441 8 48.7495V11.2495C8 10.255 8.39509 9.30113 9.09835 8.59787C9.80161 7.89461 10.7554 7.49952 11.75 7.49952H30.5C30.9973 7.49952 31.4742 7.69707 31.8258 8.0487C32.1775 8.40033 32.375 8.87724 32.375 9.37452C32.375 9.8718 32.1775 10.3487 31.8258 10.7003C31.4742 11.052 30.9973 11.2495 30.5 11.2495H11.75V48.7495H49.25V29.9995C49.25 29.5022 49.4475 29.0253 49.7992 28.6737C50.1508 28.3221 50.6277 28.1245 51.125 28.1245C51.6223 28.1245 52.0992 28.3221 52.4508 28.6737C52.8025 29.0253 53 29.5022 53 29.9995Z" fill="#000B2E"/>
</svg>
