<svg width="61" height="60" viewBox="0 0 61 60" fill="none" xmlns="http://www.w3.org/2000/svg">
<path fill-rule="evenodd" clip-rule="evenodd" d="M16.2829 31.1575C16.0002 23.2303 22.0244 16.563 29.7525 16.25C37.4808 16.563 43.505 23.2303 43.2223 31.1575C43.2223 34.45 46.7103 37.6575 46.8125 40.9575C46.8125 41.0043 46.8125 41.0508 46.8125 41.0975C46.888 43.2118 45.281 44.9898 43.2198 45.0725H35.4393C35.4465 46.6925 34.851 48.2545 33.7745 49.44C32.7393 50.593 31.2808 51.249 29.7525 51.249C28.2243 51.249 26.766 50.593 25.7308 49.44C24.654 48.2545 24.0587 46.6925 24.0659 45.0725H16.2829C14.2217 44.9898 12.6146 43.2118 12.6901 41.0975C12.6901 41.0508 12.6901 41.0043 12.6901 40.9575C12.7949 37.6675 16.2829 34.4525 16.2829 31.1575Z" stroke="#000B2E" stroke-width="3.75" stroke-linecap="round" stroke-linejoin="round"/>
<path d="M24.0659 43.1975C23.0304 43.1975 22.1909 44.037 22.1909 45.0725C22.1909 46.108 23.0304 46.9475 24.0659 46.9475V43.1975ZM35.4393 46.9475C36.4748 46.9475 37.3143 46.108 37.3143 45.0725C37.3143 44.037 36.4748 43.1975 35.4393 43.1975V46.9475ZM32.1901 13.125C33.2256 13.125 34.0651 12.2855 34.0651 11.25C34.0651 10.2145 33.2256 9.375 32.1901 9.375V13.125ZM27.3151 9.375C26.2796 9.375 25.4401 10.2145 25.4401 11.25C25.4401 12.2855 26.2796 13.125 27.3151 13.125V9.375ZM24.0659 46.9475H35.4393V43.1975H24.0659V46.9475ZM32.1901 9.375H27.3151V13.125H32.1901V9.375Z" fill="#000B2E"/>
</svg>
