<svg width="61" height="60" viewBox="0 0 61 60" fill="none" xmlns="http://www.w3.org/2000/svg">
<path d="M53.7781 17.1955L43.3039 6.72365C42.9557 6.37534 42.5423 6.09904 42.0872 5.91053C41.6322 5.72202 41.1445 5.625 40.652 5.625C40.1594 5.625 39.6717 5.72202 39.2167 5.91053C38.7617 6.09904 38.3482 6.37534 38 6.72365L9.09924 35.6244C8.7495 35.9714 8.47222 36.3844 8.28352 36.8395C8.09481 37.2945 7.99845 37.7826 8.00002 38.2752V48.7494C8.00002 49.744 8.39511 50.6978 9.09837 51.4011C9.80163 52.1043 10.7555 52.4994 11.75 52.4994H51.125C51.6223 52.4994 52.0992 52.3019 52.4508 51.9503C52.8025 51.5986 53 51.1217 53 50.6244C53 50.1272 52.8025 49.6502 52.4508 49.2986C52.0992 48.947 51.6223 48.7494 51.125 48.7494H27.5281L53.7781 22.4994C54.1265 22.1512 54.4027 21.7378 54.5913 21.2827C54.7798 20.8277 54.8768 20.34 54.8768 19.8475C54.8768 19.3549 54.7798 18.8672 54.5913 18.4122C54.4027 17.9572 54.1265 17.5438 53.7781 17.1955ZM22.2242 48.7494H11.75V38.2752L32.375 17.6502L42.8492 28.1244L22.2242 48.7494ZM45.5 25.4737L35.0281 14.9994L40.6531 9.37443L51.125 19.8487L45.5 25.4737Z" fill="black"/>
</svg>
