<svg width="61" height="60" viewBox="0 0 61 60" fill="none" xmlns="http://www.w3.org/2000/svg">
<path d="M51.2235 9.28101C48.8825 6.9401 45.7075 5.625 42.3969 5.625C39.0863 5.625 35.9113 6.9401 33.5704 9.28101L9.78129 33.0677C7.48931 35.4187 6.21586 38.578 6.23683 41.8613C6.25779 45.1445 7.57147 48.2873 9.89329 50.6088C12.2151 52.9303 15.3581 54.2436 18.6413 54.2641C21.9246 54.2847 25.0838 53.0108 27.4344 50.7185L51.2258 26.9318C53.5628 24.5891 54.8751 21.415 54.8746 18.1059C54.8742 14.7969 53.5611 11.6231 51.2235 9.28101ZM24.7836 48.0677C23.146 49.7056 20.9248 50.6259 18.6087 50.6262C16.2925 50.6264 14.0712 49.7065 12.4332 48.0689C10.7953 46.4313 9.87503 44.2101 9.87481 41.894C9.87459 39.5778 10.7945 37.3564 12.4321 35.7185L23 25.1505L35.3516 37.4998L24.7836 48.0677ZM48.5727 24.281L38 34.849L25.6532 22.4998L36.2235 11.9318C37.8676 10.3257 40.0786 9.43246 42.377 9.44589C44.6753 9.45932 46.8757 10.3783 48.501 12.0035C50.1262 13.6287 51.0452 15.8292 51.0586 18.1275C51.072 20.4259 50.1788 22.6369 48.5727 24.281ZM44.9563 19.2982C45.1306 19.4723 45.2689 19.6791 45.3633 19.9067C45.4576 20.1344 45.5062 20.3784 45.5062 20.6248C45.5062 20.8712 45.4576 21.1152 45.3633 21.3428C45.2689 21.5704 45.1306 21.7772 44.9563 21.9513L39.3313 27.5763C39.1571 27.7504 38.9503 27.8884 38.7227 27.9825C38.4952 28.0767 38.2513 28.1251 38.0051 28.125C37.7588 28.1249 37.515 28.0763 37.2875 27.9819C37.06 27.8876 36.8534 27.7494 36.6793 27.5752C36.5053 27.4009 36.3672 27.1942 36.2731 26.9666C36.179 26.7391 36.1306 26.4952 36.1307 26.2489C36.1308 26.0027 36.1794 25.7589 36.2737 25.5314C36.3681 25.3039 36.5063 25.0972 36.6805 24.9232L42.3055 19.2982C42.6571 18.9468 43.1338 18.7495 43.6309 18.7495C44.128 18.7495 44.6047 18.9468 44.9563 19.2982Z" fill="#000B2E"/>
</svg>
