<svg width="60" height="60" viewBox="0 0 60 60" fill="none" xmlns="http://www.w3.org/2000/svg">
<path d="M52.5 30C52.5 30.4973 52.3025 30.9742 51.9508 31.3258C51.5992 31.6775 51.1223 31.875 50.625 31.875H31.875V50.625C31.875 51.1223 31.6775 51.5992 31.3258 51.9508C30.9742 52.3025 30.4973 52.5 30 52.5C29.5027 52.5 29.0258 52.3025 28.6742 51.9508C28.3225 51.5992 28.125 51.1223 28.125 50.625V31.875H9.375C8.87772 31.875 8.40081 31.6775 8.04918 31.3258C7.69754 30.9742 7.5 30.4973 7.5 30C7.5 29.5027 7.69754 29.0258 8.04918 28.6742C8.40081 28.3225 8.87772 28.125 9.375 28.125H28.125V9.375C28.125 8.87772 28.3225 8.40081 28.6742 8.04918C29.0258 7.69754 29.5027 7.5 30 7.5C30.4973 7.5 30.9742 7.69754 31.3258 8.04918C31.6775 8.40081 31.875 8.87772 31.875 9.375V28.125H50.625C51.1223 28.125 51.5992 28.3225 51.9508 28.6742C52.3025 29.0258 52.5 29.5027 52.5 30Z" fill="black"/>
</svg>
