<svg width="60" height="60" viewBox="0 0 60 60" fill="none" xmlns="http://www.w3.org/2000/svg">
<path d="M45 22.5C45 29.182 39.2648 34.7133 31.875 35.5219V37.5C31.875 37.9973 31.6775 38.4742 31.3258 38.8258C30.9742 39.1775 30.4973 39.375 30 39.375C29.5027 39.375 29.0258 39.1775 28.6742 38.8258C28.3225 38.4742 28.125 37.9973 28.125 37.5V33.75C28.125 33.2527 28.3225 32.7758 28.6742 32.4242C29.0258 32.0725 29.5027 31.875 30 31.875C36.2039 31.875 41.25 27.6703 41.25 22.5C41.25 17.3297 36.2039 13.125 30 13.125C23.7961 13.125 18.75 17.3297 18.75 22.5C18.75 22.9973 18.5525 23.4742 18.2008 23.8258C17.8492 24.1775 17.3723 24.375 16.875 24.375C16.3777 24.375 15.9008 24.1775 15.5492 23.8258C15.1975 23.4742 15 22.9973 15 22.5C15 15.2625 21.7289 9.375 30 9.375C38.2711 9.375 45 15.2625 45 22.5ZM30 45C29.2583 45 28.5333 45.2199 27.9166 45.632C27.2999 46.044 26.8193 46.6297 26.5355 47.3149C26.2516 48.0002 26.1774 48.7542 26.3221 49.4816C26.4667 50.209 26.8239 50.8772 27.3484 51.4016C27.8728 51.9261 28.541 52.2832 29.2684 52.4279C29.9958 52.5726 30.7498 52.4984 31.4351 52.2146C32.1203 51.9307 32.706 51.4501 33.118 50.8334C33.5301 50.2167 33.75 49.4917 33.75 48.75C33.75 47.7554 33.3549 46.8016 32.6516 46.0984C31.9484 45.3951 30.9946 45 30 45Z" fill="#000B2E"/>
</svg>
