<svg width="61" height="60" viewBox="0 0 61 60" fill="none" xmlns="http://www.w3.org/2000/svg">
<path d="M33.3125 42.1875C33.3125 42.7438 33.1476 43.2875 32.8385 43.75C32.5295 44.2126 32.0902 44.573 31.5763 44.7859C31.0624 44.9988 30.4969 45.0545 29.9513 44.946C29.4057 44.8374 28.9046 44.5696 28.5113 44.1762C28.1179 43.7829 27.8501 43.2818 27.7416 42.7362C27.633 42.1906 27.6887 41.6251 27.9016 41.1112C28.1145 40.5973 28.475 40.158 28.9375 39.849C29.4 39.5399 29.9437 39.375 30.5 39.375C31.2459 39.375 31.9613 39.6713 32.4887 40.1988C33.0162 40.7262 33.3125 41.4416 33.3125 42.1875ZM30.5 16.875C25.3297 16.875 21.125 20.6602 21.125 25.3125V26.25C21.125 26.7473 21.3226 27.2242 21.6742 27.5758C22.0258 27.9275 22.5027 28.125 23 28.125C23.4973 28.125 23.9742 27.9275 24.3258 27.5758C24.6775 27.2242 24.875 26.7473 24.875 26.25V25.3125C24.875 22.7344 27.3992 20.625 30.5 20.625C33.6008 20.625 36.125 22.7344 36.125 25.3125C36.125 27.8906 33.6008 30 30.5 30C30.0027 30 29.5258 30.1975 29.1742 30.5492C28.8226 30.9008 28.625 31.3777 28.625 31.875V33.75C28.625 34.2473 28.8226 34.7242 29.1742 35.0758C29.5258 35.4275 30.0027 35.625 30.5 35.625C30.9973 35.625 31.4742 35.4275 31.8258 35.0758C32.1775 34.7242 32.375 34.2473 32.375 33.75V33.5812C36.65 32.7961 39.875 29.3859 39.875 25.3125C39.875 20.6602 35.6703 16.875 30.5 16.875ZM54.875 30C54.875 34.8209 53.4454 39.5336 50.7671 43.542C48.0887 47.5505 44.2819 50.6747 39.8279 52.5196C35.374 54.3644 30.473 54.8472 25.7447 53.9066C21.0164 52.9661 16.6732 50.6446 13.2643 47.2357C9.85538 43.8268 7.53388 39.4836 6.59337 34.7553C5.65286 30.027 6.13556 25.126 7.98045 20.6721C9.82533 16.2181 12.9495 12.4113 16.958 9.73293C20.9664 7.05457 25.6791 5.625 30.5 5.625C36.9626 5.63182 43.1585 8.20209 47.7282 12.7718C52.2979 17.3415 54.8682 23.5374 54.875 30ZM51.125 30C51.125 25.9208 49.9154 21.9331 47.6491 18.5414C45.3828 15.1496 42.1616 12.506 38.3929 10.945C34.6241 9.38393 30.4771 8.97548 26.4763 9.7713C22.4754 10.5671 18.8004 12.5315 15.9159 15.4159C13.0315 18.3004 11.0671 21.9754 10.2713 25.9763C9.47549 29.9771 9.88394 34.1241 11.445 37.8928C13.0061 41.6616 15.6496 44.8828 19.0414 47.1491C22.4331 49.4154 26.4208 50.625 30.5 50.625C35.9682 50.6188 41.2106 48.4438 45.0772 44.5772C48.9438 40.7106 51.1188 35.4682 51.125 30Z" fill="black"/>
</svg>
