<svg width="61" height="60" viewBox="0 0 61 60" fill="none" xmlns="http://www.w3.org/2000/svg">
<path d="M6.12501 29.9991C6.12997 25.5251 7.90946 21.2357 11.0731 18.0721C14.2367 14.9085 18.526 13.1291 23 13.1241H48.4742L46.0484 10.7007C45.6966 10.3488 45.499 9.87165 45.499 9.37409C45.499 8.87653 45.6966 8.39935 46.0484 8.04753C46.4003 7.6957 46.8774 7.49805 47.375 7.49805C47.8726 7.49805 48.3497 7.6957 48.7016 8.04753L54.3266 13.6725C54.5009 13.8467 54.6392 14.0535 54.7336 14.2811C54.8279 14.5087 54.8765 14.7527 54.8765 14.9991C54.8765 15.2455 54.8279 15.4895 54.7336 15.7171C54.6392 15.9447 54.5009 16.1515 54.3266 16.3257L48.7016 21.9507C48.3497 22.3025 47.8726 22.5001 47.375 22.5001C46.8774 22.5001 46.4003 22.3025 46.0484 21.9507C45.6966 21.5988 45.499 21.1216 45.499 20.6241C45.499 20.1265 45.6966 19.6494 46.0484 19.2975L48.4742 16.8741H23C19.5202 16.8778 16.184 18.2618 13.7233 20.7224C11.2627 23.183 9.87873 26.5193 9.87501 29.9991C9.87501 30.4964 9.67747 30.9733 9.32583 31.3249C8.9742 31.6765 8.49729 31.8741 8.00001 31.8741C7.50273 31.8741 7.02582 31.6765 6.67418 31.3249C6.32255 30.9733 6.12501 30.4964 6.12501 29.9991ZM53 28.1241C52.5027 28.1241 52.0258 28.3216 51.6742 28.6733C51.3225 29.0249 51.125 29.5018 51.125 29.9991C51.1213 33.4789 49.7373 36.8152 47.2767 39.2758C44.8161 41.7364 41.4798 43.1204 38 43.1241H12.5258L14.9516 40.7007C15.1258 40.5265 15.264 40.3196 15.3582 40.092C15.4525 39.8644 15.5011 39.6205 15.5011 39.3741C15.5011 39.1277 15.4525 38.8838 15.3582 38.6562C15.264 38.4286 15.1258 38.2217 14.9516 38.0475C14.7774 37.8733 14.5706 37.7351 14.3429 37.6409C14.1153 37.5466 13.8714 37.498 13.625 37.498C13.3786 37.498 13.1347 37.5466 12.9071 37.6409C12.6795 37.7351 12.4727 37.8733 12.2984 38.0475L6.67345 43.6725C6.49912 43.8467 6.36082 44.0535 6.26646 44.2811C6.1721 44.5087 6.12354 44.7527 6.12354 44.9991C6.12354 45.2455 6.1721 45.4895 6.26646 45.7171C6.36082 45.9447 6.49912 46.1515 6.67345 46.3257L12.2984 51.9507C12.4727 52.1249 12.6795 52.2631 12.9071 52.3573C13.1347 52.4516 13.3786 52.5001 13.625 52.5001C13.8714 52.5001 14.1153 52.4516 14.3429 52.3573C14.5706 52.2631 14.7774 52.1249 14.9516 51.9507C15.1258 51.7765 15.264 51.5696 15.3582 51.342C15.4525 51.1144 15.5011 50.8705 15.5011 50.6241C15.5011 50.3777 15.4525 50.1338 15.3582 49.9062C15.264 49.6786 15.1258 49.4717 14.9516 49.2975L12.5258 46.8741H38C42.474 46.8691 46.7634 45.0896 49.927 41.926C53.0906 38.7624 54.87 34.4731 54.875 29.9991C54.875 29.5018 54.6775 29.0249 54.3258 28.6733C53.9742 28.3216 53.4973 28.1241 53 28.1241Z" fill="#000B2E"/>
</svg>
