<svg width="45" height="48" viewBox="0 0 45 48" fill="none" xmlns="http://www.w3.org/2000/svg">
<path d="M41.25 0.375H3.75C2.75544 0.375 1.80161 0.770088 1.09835 1.47335C0.395088 2.17661 0 3.13044 0 4.125V17.25C0 29.6063 5.98125 37.0945 10.9992 41.2008C16.4039 45.6211 21.7805 47.1211 22.0148 47.1844C22.3371 47.272 22.677 47.272 22.9992 47.1844C23.2336 47.1211 28.6031 45.6211 34.0148 41.2008C39.0188 37.0945 45 29.6063 45 17.25V4.125C45 3.13044 44.6049 2.17661 43.9016 1.47335C43.1984 0.770088 42.2446 0.375 41.25 0.375ZM41.25 17.25C41.25 25.9383 38.0484 32.9906 31.7344 38.2078C28.9858 40.4712 25.8599 42.2325 22.5 43.4109C19.1841 42.253 16.0968 40.523 13.3781 38.2992C6.98906 33.0727 3.75 25.9922 3.75 17.25V4.125H41.25V17.25ZM11.7984 24.2016C11.4466 23.8497 11.249 23.3726 11.249 22.875C11.249 22.3774 11.4466 21.9003 11.7984 21.5484C12.1503 21.1966 12.6274 20.999 13.125 20.999C13.6226 20.999 14.0997 21.1966 14.4516 21.5484L18.75 25.8492L30.5484 14.0484C30.7226 13.8742 30.9295 13.736 31.1571 13.6418C31.3847 13.5475 31.6286 13.499 31.875 13.499C32.1214 13.499 32.3653 13.5475 32.5929 13.6418C32.8205 13.736 33.0274 13.8742 33.2016 14.0484C33.3758 14.2226 33.514 14.4295 33.6082 14.6571C33.7025 14.8847 33.751 15.1286 33.751 15.375C33.751 15.6214 33.7025 15.8653 33.6082 16.0929C33.514 16.3205 33.3758 16.5274 33.2016 16.7016L20.0766 29.8266C19.9024 30.0009 19.6956 30.1392 19.468 30.2336C19.2404 30.3279 18.9964 30.3765 18.75 30.3765C18.5036 30.3765 18.2596 30.3279 18.032 30.2336C17.8044 30.1392 17.5976 30.0009 17.4234 29.8266L11.7984 24.2016Z" fill="black"/>
</svg>
