<svg width="46" height="48" viewBox="0 0 46 48" fill="none" xmlns="http://www.w3.org/2000/svg">
<path d="M13.8177 34.4396C14.0069 34.5818 14.2223 34.6853 14.4515 34.7441C14.6807 34.803 14.9193 34.8161 15.1535 34.7826C15.3878 34.7492 15.6132 34.6699 15.8168 34.5493C16.0204 34.4286 16.1982 34.269 16.34 34.0796C17.4298 32.6265 18.843 31.4471 20.4676 30.6348C22.0922 29.8225 23.8836 29.3996 25.7 29.3996C27.5164 29.3996 29.3078 29.8225 30.9324 30.6348C32.557 31.4471 33.9702 32.6265 35.06 34.0796C35.2018 34.2687 35.3795 34.428 35.5829 34.5485C35.7863 34.6689 36.0114 34.7481 36.2454 34.7815C36.4794 34.8149 36.7177 34.802 36.9467 34.7433C37.1757 34.6846 37.3909 34.5814 37.58 34.4396C37.7691 34.2978 37.9284 34.1201 38.0489 33.9167C38.1693 33.7133 38.2485 33.4882 38.2819 33.2542C38.3153 33.0202 38.3023 32.7819 38.2437 32.5529C38.185 32.3239 38.0818 32.1087 37.94 31.9196C36.3461 29.7827 34.2207 28.1002 31.775 27.0394C33.1153 25.8157 34.0543 24.2154 34.4688 22.4485C34.8834 20.6815 34.754 18.8306 34.0978 17.1385C33.4415 15.4464 32.2891 13.9923 30.7916 12.9669C29.2941 11.9415 27.5216 11.3928 25.7067 11.3928C23.8919 11.3928 22.1194 11.9415 20.6219 12.9669C19.1244 13.9923 17.972 15.4464 17.3157 17.1385C16.6595 18.8306 16.5301 20.6815 16.9446 22.4485C17.3592 24.2154 18.2982 25.8157 19.6385 27.0394C17.1879 28.0982 15.0576 29.7808 13.46 31.9196C13.1733 32.3012 13.05 32.7811 13.1171 33.2537C13.1841 33.7263 13.4362 34.1528 13.8177 34.4396ZM20.3 20.3996C20.3 19.3316 20.6167 18.2876 21.2101 17.3995C21.8034 16.5115 22.6468 15.8194 23.6335 15.4107C24.6202 15.0019 25.706 14.895 26.7535 15.1034C27.801 15.3117 28.7632 15.826 29.5184 16.5812C30.2736 17.3364 30.7879 18.2986 30.9962 19.3461C31.2046 20.3936 31.0977 21.4794 30.6889 22.4661C30.2802 23.4528 29.5881 24.2962 28.7001 24.8895C27.8121 25.4829 26.768 25.7996 25.7 25.7996C24.2678 25.7996 22.8943 25.2307 21.8816 24.218C20.8689 23.2053 20.3 21.8318 20.3 20.3996ZM41.9 0.599609H9.5C8.54522 0.599609 7.62955 0.978894 6.95442 1.65402C6.27928 2.32916 5.9 3.24483 5.9 4.19961V9.59961H2.3C1.82261 9.59961 1.36477 9.78925 1.02721 10.1268C0.689642 10.4644 0.5 10.9222 0.5 11.3996C0.5 11.877 0.689642 12.3348 1.02721 12.6724C1.36477 13.01 1.82261 13.1996 2.3 13.1996H5.9V22.1996H2.3C1.82261 22.1996 1.36477 22.3893 1.02721 22.7268C0.689642 23.0644 0.5 23.5222 0.5 23.9996C0.5 24.477 0.689642 24.9348 1.02721 25.2724C1.36477 25.61 1.82261 25.7996 2.3 25.7996H5.9V34.7996H2.3C1.82261 34.7996 1.36477 34.9893 1.02721 35.3268C0.689642 35.6644 0.5 36.1222 0.5 36.5996C0.5 37.077 0.689642 37.5348 1.02721 37.8724C1.36477 38.21 1.82261 38.3996 2.3 38.3996H5.9V43.7996C5.9 44.7544 6.27928 45.6701 6.95442 46.3452C7.62955 47.0203 8.54522 47.3996 9.5 47.3996H41.9C42.8548 47.3996 43.7705 47.0203 44.4456 46.3452C45.1207 45.6701 45.5 44.7544 45.5 43.7996V4.19961C45.5 3.24483 45.1207 2.32916 44.4456 1.65402C43.7705 0.978894 42.8548 0.599609 41.9 0.599609ZM41.9 43.7996H9.5V4.19961H41.9V43.7996Z" fill="#000B2E"/>
</svg>
