<svg width="46" height="46" viewBox="0 0 46 46" fill="none" xmlns="http://www.w3.org/2000/svg">
<path d="M19.2494 43.6236C19.2494 44.1209 19.0518 44.5978 18.7002 44.9494C18.3486 45.301 17.8717 45.4985 17.3744 45.4985H2.37494C1.87767 45.4985 1.40078 45.301 1.04916 44.9494C0.697538 44.5978 0.5 44.1209 0.5 43.6236V2.37494C0.5 1.87767 0.697538 1.40078 1.04916 1.04916C1.40078 0.697538 1.87767 0.5 2.37494 0.5H17.3744C17.8717 0.5 18.3486 0.697538 18.7002 1.04916C19.0518 1.40078 19.2494 1.87767 19.2494 2.37494C19.2494 2.8722 19.0518 3.3491 18.7002 3.70072C18.3486 4.05234 17.8717 4.24988 17.3744 4.24988H4.24988V41.7486H17.3744C17.8717 41.7486 18.3486 41.9462 18.7002 42.2978C19.0518 42.6494 19.2494 43.1263 19.2494 43.6236ZM44.9501 21.6727L35.5754 12.298C35.2236 11.9462 34.7464 11.7486 34.2489 11.7486C33.7514 11.7486 33.2742 11.9462 32.9224 12.298C32.5706 12.6499 32.3729 13.127 32.3729 13.6246C32.3729 14.1221 32.5706 14.5993 32.9224 14.9511L39.098 21.1243H17.3744C16.8772 21.1243 16.4003 21.3219 16.0487 21.6735C15.697 22.0251 15.4995 22.502 15.4995 22.9993C15.4995 23.4965 15.697 23.9734 16.0487 24.325C16.4003 24.6767 16.8772 24.8742 17.3744 24.8742H39.098L32.9224 31.0474C32.5706 31.3993 32.3729 31.8764 32.3729 32.374C32.3729 32.8715 32.5706 33.3487 32.9224 33.7005C33.2742 34.0523 33.7514 34.2499 34.2489 34.2499C34.7464 34.2499 35.2236 34.0523 35.5754 33.7005L44.9501 24.3258C45.1244 24.1517 45.2627 23.9449 45.3571 23.7173C45.4514 23.4896 45.5 23.2457 45.5 22.9993C45.5 22.7529 45.4514 22.5089 45.3571 22.2813C45.2627 22.0537 45.1244 21.8469 44.9501 21.6727Z" fill="#000B2E"/>
</svg>
